HIERARCHY
ROOT Root
{
  OFFSET 0.0 0.0 0.0
  CHANNELS 6 Xposition Yposition Zposition Zrotation Yrotation Xrotation
  JOINT Hips
  {
    OFFSET 0.0 100.0 0.0
    CHANNELS 6 Xposition Yposition Zposition Zrotation Yrotation Xrotation
    JOINT Spine1
    {
      OFFSET -0.013727 5.003763 -0.053727
      CHANNELS 3 Zrotation Yrotation Xrotation
      JOINT Spine2
      {
        OFFSET -0.0 7.125301 -0.029825
        CHANNELS 3 Zrotation Yrotation Xrotation
        JOINT Chest
        {
          OFFSET -1e-06 7.550063 -0.815971
          CHANNELS 3 Zrotation Yrotation Xrotation
          JOINT Neck1
          {
            OFFSET -0.181677 26.311295 -0.553348
            CHANNELS 3 Zrotation Yrotation Xrotation
            JOINT Neck2
            {
              OFFSET -3e-06 7.709397 2.302585
              CHANNELS 3 Zrotation Yrotation Xrotation
              JOINT Head
              {
                OFFSET -5e-06 6.128916 1.953709
                CHANNELS 3 Zrotation Yrotation Xrotation
                JOINT HeadEnd
                {
                  OFFSET 0.003598 16.065403 -1.835379
                  CHANNELS 3 Zrotation Yrotation Xrotation
                }
                JOINT Jaw
                {
                  OFFSET 0.002637 0.475592 3.094941
                  CHANNELS 3 Zrotation Yrotation Xrotation
                }
                JOINT LeftEye
                {
                  OFFSET 3.206381 5.380205 7.586883
                  CHANNELS 3 Zrotation Yrotation Xrotation
                }
                JOINT RightEye
                {
                  OFFSET -3.22244 5.361869 7.558234
                  CHANNELS 3 Zrotation Yrotation Xrotation
                }
              }
            }
          }
          JOINT LeftShoulder
          {
            OFFSET 1.621652 23.237164 5.113413
            CHANNELS 3 Zrotation Yrotation Xrotation
            JOINT LeftArm
            {
              OFFSET 14.919846 2e-06 -5.502326
              CHANNELS 3 Zrotation Yrotation Xrotation
              JOINT LeftForeArm
              {
                OFFSET 28.739307 0.0 -0.002588
                CHANNELS 3 Zrotation Yrotation Xrotation
                JOINT LeftHand
                {
                  OFFSET 27.093981 -1e-06 0.002609
                  CHANNELS 3 Zrotation Yrotation Xrotation
                  JOINT LeftHandThumb1
                  {
                    OFFSET 2.276482 -1.392045 3.191413
                    CHANNELS 3 Zrotation Yrotation Xrotation
                    JOINT LeftHandThumb2
                    {
                      OFFSET 4.012836 -1.828127 1.641654
                      CHANNELS 3 Zrotation Yrotation Xrotation
                      JOINT LeftHandThumb3
                      {
                        OFFSET 2.798515 0.0 -3e-06
                        CHANNELS 3 Zrotation Yrotation Xrotation
                        JOINT LeftHandThumbEnd
                        {
                          OFFSET 3.180793 -4e-06 4e-06
                          CHANNELS 3 Zrotation Yrotation Xrotation
                        }
                      }
                    }
                  }
                  JOINT LeftHandIndex1
                  {
                    OFFSET 3.247555 -0.531998 2.296169
                    CHANNELS 3 Zrotation Yrotation Xrotation
                    JOINT LeftHandIndex2
                    {
                      OFFSET 6.364578 0.01206 0.1786
                      CHANNELS 3 Zrotation Yrotation Xrotation
                      JOINT LeftHandIndex3
                      {
                        OFFSET 3.662364 0.0 0.0
                        CHANNELS 3 Zrotation Yrotation Xrotation
                        JOINT LeftHandIndex4
                        {
                          OFFSET 2.329242 4e-06 4e-06
                          CHANNELS 3 Zrotation Yrotation Xrotation
                          JOINT LeftHandIndexEnd
                          {
                            OFFSET 2.759615 -0.180537 -0.113024
                            CHANNELS 3 Zrotation Yrotation Xrotation
                          }
                        }
                      }
                    }
                  }
                  JOINT LeftHandMiddle1
                  {
                    OFFSET 3.163495 0.240981 1.000332
                    CHANNELS 3 Zrotation Yrotation Xrotation
                    JOINT LeftHandMiddle2
                    {
                      OFFSET 6.19078 -0.259278 -1.002548
                      CHANNELS 3 Zrotation Yrotation Xrotation
                      JOINT LeftHandMiddle3
                      {
                        OFFSET 4.35652 -4e-06 -1e-06
                        CHANNELS 3 Zrotation Yrotation Xrotation
                        JOINT LeftHandMiddle4
                        {
                          OFFSET 2.996877 -8e-06 0.0
                          CHANNELS 3 Zrotation Yrotation Xrotation
                          JOINT LeftHandMiddleEnd
                          {
                            OFFSET 2.304287 -0.294569 -0.031741
                            CHANNELS 3 Zrotation Yrotation Xrotation
                          }
                        }
                      }
                    }
                  }
                  JOINT LeftHandRing1
                  {
                    OFFSET 2.882643 -0.053652 -0.322543
                    CHANNELS 3 Zrotation Yrotation Xrotation
                    JOINT LeftHandRing2
                    {
                      OFFSET 5.854541 -0.486202 -1.373841
                      CHANNELS 3 Zrotation Yrotation Xrotation
                      JOINT LeftHandRing3
                      {
                        OFFSET 4.350578 0.0 3e-06
                        CHANNELS 3 Zrotation Yrotation Xrotation
                        JOINT LeftHandRing4
                        {
                          OFFSET 2.651321 7e-06 2e-06
                          CHANNELS 3 Zrotation Yrotation Xrotation
                          JOINT LeftHandRingEnd
                          {
                            OFFSET 1.936105 0.077687 -7.1e-05
                            CHANNELS 3 Zrotation Yrotation Xrotation
                          }
                        }
                      }
                    }
                  }
                  JOINT LeftHandPinky1
                  {
                    OFFSET 2.8655 -0.310005 -1.600378
                    CHANNELS 3 Zrotation Yrotation Xrotation
                    JOINT LeftHandPinky2
                    {
                      OFFSET 5.087849 -1.331141 -1.77123
                      CHANNELS 3 Zrotation Yrotation Xrotation
                      JOINT LeftHandPinky3
                      {
                        OFFSET 3.070974 4e-06 0.0
                        CHANNELS 3 Zrotation Yrotation Xrotation
                        JOINT LeftHandPinky4
                        {
                          OFFSET 1.549672 0.0 1e-06
                          CHANNELS 3 Zrotation Yrotation Xrotation
                          JOINT LeftHandPinkyEnd
                          {
                            OFFSET 1.944893 -0.157802 0.057219
                            CHANNELS 3 Zrotation Yrotation Xrotation
                          }
                        }
                      }
                    }
                  }
                }
              }
            }
          }
          JOINT RightShoulder
          {
            OFFSET -1.380118 23.180309 5.214158
            CHANNELS 3 Zrotation Yrotation Xrotation
            JOINT RightArm
            {
              OFFSET -15.037196 1.2e-05 -5.545604
              CHANNELS 3 Zrotation Yrotation Xrotation
              JOINT RightForeArm
              {
                OFFSET -28.736639 2e-06 -0.002597
                CHANNELS 3 Zrotation Yrotation Xrotation
                JOINT RightHand
                {
                  OFFSET -27.133619 -0.0 0.002613
                  CHANNELS 3 Zrotation Yrotation Xrotation
                  JOINT RightHandThumb1
                  {
                    OFFSET -2.274032 -1.383988 3.163127
                    CHANNELS 3 Zrotation Yrotation Xrotation
                    JOINT RightHandThumb2
                    {
                      OFFSET -4.011429 -1.827466 1.640914
                      CHANNELS 3 Zrotation Yrotation Xrotation
                      JOINT RightHandThumb3
                      {
                        OFFSET -2.794935 -4e-06 -3e-06
                        CHANNELS 3 Zrotation Yrotation Xrotation
                        JOINT RightHandThumbEnd
                        {
                          OFFSET -3.183852 4e-06 1e-06
                          CHANNELS 3 Zrotation Yrotation Xrotation
                        }
                      }
                    }
                  }
                  JOINT RightHandIndex1
                  {
                    OFFSET -3.253266 -0.520057 2.282866
                    CHANNELS 3 Zrotation Yrotation Xrotation
                    JOINT RightHandIndex2
                    {
                      OFFSET -6.341917 0.012471 0.178266
                      CHANNELS 3 Zrotation Yrotation Xrotation
                      JOINT RightHandIndex3
                      {
                        OFFSET -3.654871 -8e-06 -0.0
                        CHANNELS 3 Zrotation Yrotation Xrotation
                        JOINT RightHandIndex4
                        {
                          OFFSET -2.327586 0.0 1e-06
                          CHANNELS 3 Zrotation Yrotation Xrotation
                          JOINT RightHandIndexEnd
                          {
                            OFFSET -2.76179 -0.180656 -0.113078
                            CHANNELS 3 Zrotation Yrotation Xrotation
                          }
                        }
                      }
                    }
                  }
                  JOINT RightHandMiddle1
                  {
                    OFFSET -3.168106 0.246593 1.00103
                    CHANNELS 3 Zrotation Yrotation Xrotation
                    JOINT RightHandMiddle2
                    {
                      OFFSET -6.180828 -0.258836 -1.000895
                      CHANNELS 3 Zrotation Yrotation Xrotation
                      JOINT RightHandMiddle3
                      {
                        OFFSET -4.348901 0.0 -0.0
                        CHANNELS 3 Zrotation Yrotation Xrotation
                        JOINT RightHandMiddle4
                        {
                          OFFSET -3.00024 -4e-06 -2e-06
                          CHANNELS 3 Zrotation Yrotation Xrotation
                          JOINT RightHandMiddleEnd
                          {
                            OFFSET -2.30252 -0.29437 -0.031706
                            CHANNELS 3 Zrotation Yrotation Xrotation
                          }
                        }
                      }
                    }
                  }
                  JOINT RightHandRing1
                  {
                    OFFSET -2.88569 -0.067952 -0.308858
                    CHANNELS 3 Zrotation Yrotation Xrotation
                    JOINT RightHandRing2
                    {
                      OFFSET -5.854198 -0.48613 -1.373731
                      CHANNELS 3 Zrotation Yrotation Xrotation
                      JOINT RightHandRing3
                      {
                        OFFSET -4.33881 -4e-06 -0.0
                        CHANNELS 3 Zrotation Yrotation Xrotation
                        JOINT RightHandRing4
                        {
                          OFFSET -2.654903 -4e-06 4e-06
                          CHANNELS 3 Zrotation Yrotation Xrotation
                          JOINT RightHandRingEnd
                          {
                            OFFSET -1.933568 0.077527 -5.2e-05
                            CHANNELS 3 Zrotation Yrotation Xrotation
                          }
                        }
                      }
                    }
                  }
                  JOINT RightHandPinky1
                  {
                    OFFSET -2.866425 -0.342796 -1.584145
                    CHANNELS 3 Zrotation Yrotation Xrotation
                    JOINT RightHandPinky2
                    {
                      OFFSET -5.091371 -1.332055 -1.772385
                      CHANNELS 3 Zrotation Yrotation Xrotation
                      JOINT RightHandPinky3
                      {
                        OFFSET -3.062664 -4e-06 1e-06
                        CHANNELS 3 Zrotation Yrotation Xrotation
                        JOINT RightHandPinky4
                        {
                          OFFSET -1.546529 4e-06 -2e-06
                          CHANNELS 3 Zrotation Yrotation Xrotation
                          JOINT RightHandPinkyEnd
                          {
                            OFFSET -1.945119 -0.157718 0.057211
                            CHANNELS 3 Zrotation Yrotation Xrotation
                          }
                        }
                      }
                    }
                  }
                }
              }
            }
          }
        }
      }
    }
    JOINT LeftLeg
    {
      OFFSET 10.043214 -8.434526 2.595655
      CHANNELS 3 Zrotation Yrotation Xrotation
      JOINT LeftShin
      {
        OFFSET -1e-06 -43.221752 -0.802913
        CHANNELS 3 Zrotation Yrotation Xrotation
        JOINT LeftFoot
        {
          OFFSET 1e-06 -42.155094 -3.481523
          CHANNELS 3 Zrotation Yrotation Xrotation
          JOINT LeftToeBase
          {
            OFFSET 0.0 -5.059472 13.231529
            CHANNELS 3 Zrotation Yrotation Xrotation
            JOINT LeftToeEnd
            {
              OFFSET -0.009607 -1.647619 6.513017
              CHANNELS 3 Zrotation Yrotation Xrotation
            }
          }
        }
      }
    }
    JOINT RightLeg
    {
      OFFSET -10.047278 -8.29526 2.620317
      CHANNELS 3 Zrotation Yrotation Xrotation
      JOINT RightShin
      {
        OFFSET 1e-06 -43.362206 -0.805556
        CHANNELS 3 Zrotation Yrotation Xrotation
        JOINT RightFoot
        {
          OFFSET 2e-06 -42.117393 -3.478398
          CHANNELS 3 Zrotation Yrotation Xrotation
          JOINT RightToeBase
          {
            OFFSET -0.0 -5.079609 13.284196
            CHANNELS 3 Zrotation Yrotation Xrotation
            JOINT RightToeEnd
            {
              OFFSET 0.009532 -1.634378 6.460591
              CHANNELS 3 Zrotation Yrotation Xrotation
            }
          }
        }
      }
    }
  }
}
MOTION
Frames: 5
Frame Time: 0.03333333333333333
0.0 0.0 0.0 0.0 -0.0 0.0 161.053284 12.014365 84.098564 -2.189218 -6.419937 91.581192 -2.171849 -0.503389 -9.651005 -0.614034 -0.862468 -8.282094 0.545063 -1.248895 7.482738 2.878154 2.17084 -5.595266 0.464029 4.486833 -3.575609 -5.233234 4.122535 -1.327886 7.7e-05 -2.3e-05 5e-06 0.0874 -0.053391 -0.164315 0.80854 -3.712415 -10.793254 -0.618899 3.62041 -10.845365 12.835073 -10.831325 8.260709 -36.424728 -20.121861 -58.035954 177.467163 -46.205997 -179.037247 26.903242 13.694064 40.99733 -5.882106 9.861288 0.70259 -10.936872 -0.360576 7.156207 0.0 8.77483 -2e-06 -17.465603 19.225367 5.718907 -1.844032 2.498505 -2.507279 -10.1636 4.678944 4.621109 -20.976023 -4e-06 2e-06 -21.226286 2.451697 -3.594 0.0 -6e-06 -0.0 -1.362681 2.240798 -0.746323 -21.334913 0.584908 3.008325 -13.821214 -3e-06 3e-06 -23.887171 -0.249078 -0.839481 -60.900387 2.129129 -1.158324 -0.294024 1.679688 0.833256 -14.218209 0.093214 1.300582 -34.212048 -0.287565 0.967174 -20.033215 0.964537 1.212845 0.0 -0.0 0.0 -3.440388 0.788233 0.501656 -15.928185 -3.167311 2.999709 -6.338827 -2e-06 2e-06 -18.123444 3.648184 -4.90567 -4e-06 1e-06 -2e-06 2.281965 4.069682 10.910271 40.323009 45.106503 -35.26553 177.529831 43.372822 179.031006 -14.496187 -12.516934 47.419483 2.243541 -5.255039 -3.180159 14.282896 -0.826591 6.952506 -4e-06 -12.69061 -1e-06 17.960285 -18.238068 1.899813 1.665666 -1.955922 -2.878299 4.727799 -4.170588 4.993925 11.020529 6e-06 -0.0 12.109053 -3.735714 -2.866784 1e-06 0.0 -0.0 1.291986 -1.92855 -1.498089 14.800136 0.567472 3.865611 14.242575 -1.341735 -6.660659 19.631975 0.143929 -0.64824 51.105888 -0.572415 -6.696552 0.353029 -1.511151 -0.03194 20.222801 3.684316 2.316634 18.787279 7e-06 3e-06 10.751633 -0.479867 1.397909 -2e-06 -0.0 1e-06 3.273808 0.305948 -0.580111 21.486828 11.830385 2.266139 8.16293 4e-06 0.0 18.399088 -3.798983 -4.940575 4e-06 0.0 -2e-06 -12.643792 80.653282 -39.145958 -9.621117 -33.110092 44.90818 -28.703915 -13.294275 -13.444434 2.218307 -1.833252 -9.794358 0.0 -1e-06 2e-06 116.423759 -87.098358 -129.131287 8.672853 53.001507 23.866917 12.302982 7.170706 -2.425232 -1.40152 0.908008 -16.924976 -0.0 0.0 -1e-06 
0.0 0.0 0.0 0.0 -0.0 0.0 162.416321 12.78007 85.523033 -0.751913 -6.451449 90.665848 -3.04222 -0.267133 -9.54136 -0.637926 -0.642829 -8.150115 -0.578903 -0.922807 7.987406 1.37292 2.478634 -5.863633 0.257003 4.138649 -3.552889 -5.296513 3.725413 -0.799284 7.7e-05 -2.3e-05 5e-06 0.111818 -0.07138 -0.16211 0.854556 -3.723601 -10.776581 -0.618221 3.594935 -10.811597 11.678616 -10.448286 8.099494 -38.015438 -26.62332 -51.536495 178.669037 -45.698978 -179.484116 27.086372 11.523389 46.244789 -5.882109 9.861288 0.70259 -10.936877 -0.360576 7.156206 1e-06 8.774826 -2e-06 -17.252392 19.149277 5.947103 -1.844033 2.498505 -2.507277 -10.163604 4.678946 4.621109 -20.976032 -3e-06 3e-06 -21.226295 2.451698 -3.594 1e-06 -6e-06 0.0 -1.362682 2.240799 -0.746324 -21.334925 0.584909 3.008322 -13.82122 -3e-06 2e-06 -23.887182 -0.249078 -0.839483 -61.029743 2.194734 -1.10425 -0.294025 1.679687 0.833256 -14.218215 0.093214 1.30058 -34.212067 -0.287564 0.967171 -20.033226 0.964536 1.212844 0.0 -0.0 -0.0 -3.44039 0.788233 0.501656 -15.928192 -3.16731 2.999708 -6.338829 -2e-06 1e-06 -18.123453 3.648184 -4.90567 -4e-06 0.0 -2e-06 3.302551 5.579529 10.824486 37.339096 41.449726 -39.140091 177.649155 42.681805 179.369431 -15.583592 -11.864343 45.69434 2.243543 -5.25504 -3.18016 14.282902 -0.826593 6.952507 -3e-06 -12.690613 -1e-06 17.868097 -17.954462 1.902973 1.665667 -1.955923 -2.8783 4.727802 -4.170589 4.993925 11.020535 4e-06 -1e-06 12.109059 -3.735717 -2.866785 -1e-06 -0.0 -1e-06 1.291986 -1.92855 -1.498091 14.80014 0.56747 3.86561 14.24258 -1.341737 -6.660659 19.631985 0.143927 -0.648243 50.942928 -0.667272 -6.71326 0.353029 -1.511151 -0.03194 20.222807 3.684315 2.316633 18.787287 8e-06 1e-06 10.751636 -0.479869 1.397908 -2e-06 1e-06 -0.0 3.273809 0.305947 -0.580111 21.486834 11.830384 2.266138 8.162935 2e-06 -1e-06 18.399099 -3.798986 -4.940577 3e-06 -0.0 -1e-06 -8.755751 78.528755 -40.58931 -10.748345 -26.463728 51.48951 -27.885933 -8.601246 -15.538546 2.088675 -1.846717 -9.478543 0.0 -0.0 2e-06 163.110809 -83.184853 -176.16246 8.818443 58.815601 21.694504 12.953115 9.712124 -2.228259 -1.480607 0.91005 -15.607861 0.0 -0.0 -0.0 
0.0 0.0 0.0 0.0 -0.0 0.0 164.272903 13.682085 86.850746 0.56126 -6.449226 89.948425 -3.578874 -0.059482 -9.124485 -0.567998 -0.414054 -7.917032 -1.242861 -0.657026 8.343035 -0.307188 2.746471 -5.933987 0.094581 3.678071 -3.494351 -5.619529 3.309806 -0.336289 7.7e-05 -2.3e-05 7e-06 0.106205 -0.076821 -0.162205 0.85142 -3.701777 -10.704514 -0.629756 3.563262 -10.73321 10.827451 -10.04708 7.818737 -40.358345 -32.092918 -46.029095 179.774567 -45.679562 179.915817 27.355289 9.482248 49.816322 -5.882111 9.861292 0.702589 -10.93688 -0.360576 7.15621 0.0 8.774831 -2e-06 -16.946617 19.044325 6.198752 -1.844034 2.498506 -2.507279 -10.163609 4.678947 4.62111 -20.97604 -5e-06 1e-06 -21.226305 2.451697 -3.594003 1e-06 -6e-06 -0.0 -1.362682 2.2408 -0.746324 -21.33493 0.584908 3.008324 -13.821227 -4e-06 1e-06 -23.887192 -0.24908 -0.839483 -60.842876 2.252505 -1.068841 -0.294025 1.679688 0.833256 -14.21822 0.093214 1.300581 -34.212074 -0.287566 0.967171 -20.03323 0.964536 1.212844 0.0 -0.0 -0.0 -3.440391 0.788233 0.501656 -15.928201 -3.167313 2.999708 -6.338831 -2e-06 1e-06 -18.123459 3.648183 -4.905675 -4e-06 1e-06 -2e-06 3.685924 6.823364 10.667635 34.438576 38.212803 -42.850906 177.893829 42.221043 179.680145 -16.746422 -11.065545 44.313507 2.243544 -5.255037 -3.180159 14.2829 -0.826596 6.952503 -2e-06 -12.690605 -0.0 17.477053 -17.717215 2.004662 1.665668 -1.955922 -2.8783 4.727801 -4.170588 4.993922 11.020534 2e-06 -2e-06 12.109059 -3.735717 -2.866786 0.0 0.0 -0.0 1.291986 -1.92855 -1.49809 14.800136 0.567467 3.865607 14.24258 -1.341738 -6.660661 19.631979 0.143924 -0.648247 50.669998 -0.740721 -6.696072 0.353029 -1.511151 -0.031942 20.222801 3.684309 2.316627 18.787283 6e-06 -4e-06 10.751632 -0.479869 1.397905 -2e-06 0.0 -0.0 3.273808 0.305947 -0.580111 21.486824 11.830372 2.266131 8.162933 2e-06 -3e-06 18.399092 -3.798986 -4.94058 3e-06 0.0 -1e-06 -7.913504 76.959923 -44.356327 -11.323653 -21.264124 57.527138 -27.20299 -6.571285 -15.942167 1.972328 -1.830637 -9.208242 -0.0 0.0 2e-06 168.711792 -79.209274 177.538742 8.645428 63.675014 20.569742 13.207429 12.079906 -2.083782 -1.49348 0.891209 -14.380939 0.0 0.0 -1e-06 
0.0 0.0 0.0 0.0 -0.0 0.0 166.760376 14.620935 88.129181 1.558579 -6.506086 89.335571 -3.781458 0.14952 -8.565474 -0.48272 -0.188598 -7.632941 -1.419657 -0.448569 8.711481 -2.047408 2.95531 -5.862248 0.053354 3.218842 -3.419763 -6.138652 2.973111 0.129701 7.7e-05 -2.2e-05 6e-06 0.073933 -0.067526 -0.155191 0.826225 -3.672098 -10.651408 -0.670708 3.553607 -10.691453 10.146117 -9.489937 7.561328 -43.606659 -36.738335 -40.834438 -179.397751 -45.673325 179.408249 27.600794 7.459599 52.507561 -5.882105 9.861286 0.702589 -10.936872 -0.360577 7.156206 1e-06 8.774826 -2e-06 -16.665655 18.859272 6.386476 -1.844032 2.498505 -2.507278 -10.1636 4.678945 4.621109 -20.976027 -6e-06 2e-06 -21.226288 2.451695 -3.594001 1e-06 -6e-06 -0.0 -1.362681 2.240798 -0.746323 -21.334915 0.584907 3.008324 -13.821215 -4e-06 2e-06 -23.887173 -0.249081 -0.839482 -60.525291 2.25098 -1.051889 -0.294024 1.679688 0.833255 -14.218208 0.093213 1.300581 -34.212051 -0.287568 0.967172 -20.033215 0.964535 1.212845 0.0 -1e-06 -0.0 -3.440389 0.788233 0.501655 -15.928189 -3.167312 2.999709 -6.338826 -2e-06 1e-06 -18.123444 3.648181 -4.90567 -4e-06 0.0 -2e-06 3.821204 8.050552 10.483585 31.298386 35.153603 -46.984703 177.781311 42.200317 179.745255 -17.709911 -10.269408 42.662273 2.243541 -5.255037 -3.180158 14.282888 -0.826592 6.952504 -4e-06 -12.690606 0.0 17.133327 -17.540125 2.085767 1.665666 -1.955922 -2.878299 4.727798 -4.170586 4.993925 11.020526 4e-06 -1e-06 12.109052 -3.735716 -2.866783 0.0 -0.0 1e-06 1.291985 -1.92855 -1.498089 14.800129 0.567469 3.865608 14.242574 -1.341735 -6.660658 19.631969 0.143927 -0.648244 50.372723 -0.65381 -6.614736 0.353029 -1.51115 -0.031941 20.222794 3.684312 2.316632 18.78727 7e-06 0.0 10.751628 -0.479867 1.397907 -2e-06 0.0 -1e-06 3.273807 0.305948 -0.580111 21.486818 11.830379 2.266135 8.162926 3e-06 -0.0 18.39908 -3.798985 -4.940575 3e-06 0.0 -1e-06 -8.014503 75.587433 -48.160728 -11.580785 -17.581545 63.312378 -26.243368 -6.162628 -14.92724 1.913029 -1.84156 -9.364843 -0.0 -0.0 2e-06 168.118683 -76.324455 177.10498 8.049014 67.500275 20.279211 13.437278 14.888953 -1.860288 -1.466728 0.859604 -13.56813 -0.0 0.0 -1e-06 
0.0 0.0 0.0 0.0 -0.0 0.0 169.782715 15.450823 89.417778 2.17774 -6.623849 88.829445 -3.698038 0.369765 -7.953199 -0.35469 -0.014159 -7.339375 -1.195575 -0.264361 9.007714 -3.506349 2.986854 -5.835876 0.079262 2.928045 -3.346008 -6.944753 2.783222 0.535023 7.7e-05 -2.2e-05 6e-06 0.054273 -0.058662 -0.138498 0.823235 -3.65661 -10.634095 -0.707351 3.557803 -10.688714 9.861073 -8.754241 7.354048 -48.113323 -40.605221 -35.14954 -179.05188 -45.503166 179.275589 27.664581 5.571631 54.832565 -5.882109 9.861289 0.70259 -10.936875 -0.360576 7.156207 -0.0 8.774827 -2e-06 -16.39349 18.616631 6.544538 -1.844033 2.498505 -2.507277 -10.163604 4.678946 4.62111 -20.97603 -3e-06 4e-06 -21.226295 2.451699 -3.594 1e-06 -6e-06 -0.0 -1.362682 2.240799 -0.746323 -21.334921 0.584909 3.008324 -13.82122 -2e-06 2e-06 -23.887178 -0.249078 -0.839483 -60.30146 2.183738 -1.058725 -0.294025 1.679688 0.833255 -14.218214 0.093215 1.300582 -34.212063 -0.287564 0.967173 -20.033218 0.964537 1.212845 0.0 -0.0 -0.0 -3.44039 0.788233 0.501655 -15.928191 -3.167311 2.999707 -6.338828 -1e-06 2e-06 -18.123453 3.648184 -4.905672 -5e-06 0.0 -2e-06 3.985561 9.288765 10.282371 27.937469 32.109329 -51.188221 177.459763 42.643398 179.6586 -18.351763 -9.744822 40.842831 2.243543 -5.255037 -3.180159 14.282896 -0.826596 6.952503 -2e-06 -12.690605 0.0 16.861378 -17.404078 2.109884 1.665667 -1.955922 -2.878299 4.7278 -4.170588 4.993925 11.02053 2e-06 -3e-06 12.109058 -3.735717 -2.866787 0.0 -0.0 1e-06 1.291986 -1.92855 -1.498088 14.800132 0.567467 3.865608 14.242577 -1.341737 -6.660661 19.631973 0.143924 -0.648246 50.053539 -0.517344 -6.532848 0.353029 -1.511151 -0.031941 20.222797 3.684309 2.316629 18.787279 6e-06 -2e-06 10.751631 -0.479868 1.397906 -2e-06 1e-06 0.0 3.273808 0.305947 -0.580109 21.486818 11.830374 2.266131 8.16293 2e-06 -2e-06 18.399088 -3.798987 -4.940577 2e-06 0.0 -1e-06 -8.16508 74.282928 -51.170094 -11.607127 -15.136377 68.667656 -25.091602 -6.387888 -13.177059 1.900768 -1.899107 -9.569792 0.0 -0.0 2e-06 165.112061 -74.640297 178.769882 7.036913 70.144524 20.349236 13.952788 18.429188 -1.225106 -1.42412 0.821657 -13.135452 0.0 -0.0 -1e-06 
